<svg width="530" height="531" viewBox="0 0 530 531" fill="none" xmlns="http://www.w3.org/2000/svg">
<path d="M273.109 452.468C270.045 452.468 266.981 452.395 263.918 452.241C260.854 452.088 257.796 451.861 254.744 451.561C251.692 451.26 248.651 450.88 245.621 450.432C242.586 449.979 239.568 449.457 236.561 448.856C233.554 448.255 230.559 447.585 227.586 446.837C224.613 446.094 221.657 445.272 218.724 444.381C215.791 443.491 212.881 442.527 209.993 441.495C207.105 440.463 204.246 439.357 201.415 438.183C198.584 437.009 195.781 435.767 193.007 434.457C190.238 433.141 187.498 431.763 184.798 430.317C182.091 428.871 179.425 427.362 176.798 425.786C174.166 424.209 171.579 422.57 169.026 420.863C166.478 419.162 163.976 417.398 161.508 415.572C159.046 413.746 156.635 411.857 154.264 409.912C151.892 407.967 149.572 405.965 147.302 403.907C145.027 401.848 142.809 399.733 140.642 397.566C138.475 395.4 136.364 393.177 134.305 390.908C132.245 388.634 130.243 386.315 128.297 383.944C126.351 381.574 124.467 379.158 122.64 376.697C120.814 374.235 119.049 371.729 117.347 369.177C115.645 366.63 114.006 364.039 112.428 361.413C110.851 358.781 109.342 356.116 107.895 353.411C106.454 350.711 105.076 347.972 103.765 345.199C102.455 342.432 101.212 339.63 100.038 336.795C98.8635 333.965 97.7629 331.106 96.7304 328.22C95.6978 325.333 94.7333 322.424 93.8483 319.492C92.9576 316.56 92.1406 313.605 91.3918 310.634C90.6485 307.656 89.9791 304.668 89.3777 301.662C88.782 298.656 88.2601 295.634 87.8062 292.605C87.358 289.571 86.9836 286.531 86.6829 283.48C86.3822 280.429 86.1553 277.373 86.0078 274.316C85.8546 271.254 85.7808 268.191 85.7808 265.123C85.7808 262.061 85.8546 258.993 86.0078 255.936C86.1553 252.873 86.3822 249.817 86.6829 246.766C86.9836 243.715 87.358 240.675 87.8062 237.641C88.2601 234.612 88.782 231.59 89.3777 228.584C89.9791 225.578 90.6485 222.59 91.3918 219.618C92.1406 216.641 92.9576 213.692 93.8483 210.754C94.7333 207.822 95.6978 204.913 96.7304 202.026C97.7629 199.14 98.8635 196.281 100.038 193.452C101.212 190.616 102.455 187.814 103.765 185.047C105.076 182.274 106.454 179.535 107.895 176.835C109.342 174.13 110.851 171.465 112.428 168.833C114.006 166.207 115.645 163.616 117.347 161.069C119.049 158.517 120.814 156.011 122.64 153.55C124.467 151.088 126.351 148.672 128.297 146.302C130.243 143.931 132.245 141.612 134.305 139.338C136.364 137.069 138.475 134.852 140.642 132.68C142.809 130.514 145.027 128.398 147.302 126.34C149.572 124.281 151.892 122.279 154.264 120.334C156.635 118.389 159.046 116.506 161.508 114.68C163.976 112.848 166.478 111.084 169.026 109.383C171.579 107.676 174.166 106.037 176.798 104.46C179.425 102.884 182.091 101.375 184.798 99.9292C187.498 98.4831 190.238 97.105 193.007 95.7893C195.781 94.4792 198.584 93.2373 201.415 92.0634C204.246 90.8894 207.105 89.7836 209.993 88.7514C212.881 87.7193 215.791 86.7552 218.724 85.8648C221.657 84.9745 224.613 84.1578 227.586 83.4092C230.559 82.6663 233.554 81.9915 236.561 81.3903C239.568 80.7949 242.586 80.2674 245.621 79.8138C248.651 79.3657 251.692 78.9858 254.744 78.6852C257.796 78.3846 260.854 78.1578 263.918 78.0047C266.981 77.8516 270.045 77.7778 273.109 77.7778H452.607C446.474 71.6303 440.052 65.7948 433.341 60.2768C426.635 54.7645 419.668 49.5924 412.451 44.7606C405.229 39.9345 397.792 35.4713 390.133 31.3711C382.474 27.2766 374.633 23.5677 366.605 20.2444C358.583 16.9211 350.414 14.0005 342.102 11.4825C333.785 8.96454 325.371 6.86056 316.85 5.17057C308.329 3.48057 299.745 2.21591 291.099 1.37092C282.453 0.525923 273.789 0.111931 265.104 0.123274C118.698 0.123274 0 118.752 0 265.123C0 411.494 118.669 530.123 265.104 530.123C273.789 530.134 282.458 529.715 291.104 528.87C299.751 528.025 308.334 526.754 316.856 525.064C325.377 523.369 333.796 521.265 342.108 518.747C350.419 516.223 358.589 513.297 366.617 509.973C374.639 506.644 382.485 502.936 390.144 498.835C397.797 494.735 405.241 490.266 412.457 485.434C419.674 480.603 426.64 475.425 433.346 469.907C440.052 464.389 446.474 458.553 452.607 452.4L273.109 452.468Z" fill="url(#paint0_linear_1_3676)"/>
<path d="M275.387 376.022H506.814C518.535 351.506 526.262 325.788 530.001 298.873H167.531C168.49 301.663 169.551 304.413 170.72 307.118C171.888 309.829 173.159 312.483 174.532 315.092C175.905 317.701 177.38 320.253 178.952 322.748C180.523 325.243 182.191 327.676 183.956 330.041C185.714 332.406 187.564 334.697 189.504 336.92C191.444 339.143 193.464 341.287 195.569 343.351C197.674 345.415 199.858 347.4 202.116 349.294C204.374 351.189 206.7 352.998 209.1 354.71C211.5 356.429 213.962 358.051 216.486 359.576C219.011 361.102 221.592 362.525 224.225 363.852C226.863 365.174 229.541 366.399 232.275 367.516C235.004 368.633 237.773 369.642 240.581 370.544C243.389 371.446 246.226 372.24 249.097 372.92C251.967 373.606 254.855 374.174 257.771 374.633C260.687 375.092 263.615 375.438 266.554 375.671C269.492 375.903 272.437 376.017 275.387 376.022Z" fill="url(#paint1_linear_1_3676)"/>
<path d="M167.531 225.324H529.95C526.205 198.409 518.478 172.691 506.757 148.174H275.387C272.437 148.18 269.492 148.299 266.554 148.526C263.615 148.758 260.687 149.104 257.771 149.564C254.855 150.023 251.967 150.596 249.097 151.276C246.226 151.957 243.389 152.751 240.581 153.653C237.773 154.554 235.004 155.569 232.275 156.687C229.541 157.804 226.863 159.023 224.225 160.35C221.592 161.672 219.011 163.101 216.486 164.621C213.962 166.146 211.5 167.768 209.1 169.486C206.7 171.199 204.374 173.008 202.116 174.902C199.858 176.796 197.674 178.781 195.569 180.846C193.464 182.91 191.444 185.054 189.504 187.277C187.564 189.5 185.714 191.791 183.956 194.156C182.191 196.526 180.523 198.953 178.952 201.449C177.38 203.944 175.905 206.496 174.532 209.105C173.159 211.713 171.888 214.368 170.72 217.078C169.551 219.783 168.49 222.534 167.531 225.324Z" fill="url(#paint2_linear_1_3676)"/>
<defs>
<linearGradient id="paint0_linear_1_3676" x1="277.485" y1="576.835" x2="183.481" y2="-7.68171" gradientUnits="userSpaceOnUse">
<stop stop-color="#02D895"/>
<stop offset="1" stop-color="#1BAFFB"/>
</linearGradient>
<linearGradient id="paint1_linear_1_3676" x1="389.754" y1="382.822" x2="387.205" y2="295.61" gradientUnits="userSpaceOnUse">
<stop stop-color="#02D895"/>
<stop offset="1" stop-color="#1BAFFB"/>
</linearGradient>
<linearGradient id="paint2_linear_1_3676" x1="389.723" y1="232.124" x2="387.173" y2="144.912" gradientUnits="userSpaceOnUse">
<stop stop-color="#02D895"/>
<stop offset="1" stop-color="#1BAFFB"/>
</linearGradient>
</defs>
</svg>
